<svg width="32" height="36" viewBox="0 0 32 36" fill="none" xmlns="http://www.w3.org/2000/svg">
<path d="M13.0534 13.0516C14.5653 11.5399 16.6004 10.667 18.7378 10.6137C20.8752 10.5603 22.9513 11.3305 24.5367 12.765L24.8384 13.0516L29.5517 17.7666C31.0868 19.3044 31.9605 21.3809 31.9867 23.5536C32.0128 25.7263 31.1894 27.8232 29.6918 29.3975C28.1942 30.9719 26.141 31.899 23.9697 31.9813C21.7984 32.0636 19.6809 31.2947 18.0684 29.8383L17.7684 29.5516L14.2317 26.015C13.9328 25.715 13.7593 25.3126 13.7463 24.8893C13.7334 24.4661 13.8821 24.0538 14.1621 23.7362C14.4422 23.4186 14.8326 23.2195 15.2542 23.1793C15.6757 23.1391 16.0967 23.2609 16.4317 23.52L16.5884 23.6583L20.1251 27.195C21.0418 28.1171 22.2818 28.6458 23.5819 28.6689C24.882 28.6921 26.14 28.2078 27.089 27.3188C28.038 26.4299 28.6034 25.2062 28.6652 23.9074C28.727 22.6085 28.2804 21.3367 27.4201 20.3616L27.1951 20.1233L22.4817 15.41C22.0174 14.9456 21.4662 14.5772 20.8595 14.3259C20.2528 14.0746 19.6026 13.9452 18.9459 13.9452C18.2892 13.9452 17.639 14.0746 17.0323 14.3259C16.4256 14.5772 15.8744 14.9456 15.4101 15.41C15.0973 15.7225 14.6733 15.898 14.2311 15.8978C13.789 15.8976 13.3651 15.7219 13.0526 15.4091C12.74 15.0964 12.5646 14.6723 12.5647 14.2302C12.5649 13.7881 12.7407 13.3641 13.0534 13.0516ZM2.44672 2.44497C3.95861 0.933189 5.99372 0.0603498 8.13111 0.00699265C10.2685 -0.0463645 12.3446 0.723843 13.9301 2.1583L14.2317 2.44497L17.7667 5.9833C18.0656 6.28323 18.2392 6.68569 18.2521 7.10894C18.265 7.53219 18.1164 7.94449 17.8363 8.2621C17.5563 8.57971 17.1658 8.77881 16.7443 8.81897C16.3227 8.85912 15.9017 8.73732 15.5667 8.4783L15.4101 8.33997L11.8751 4.80497C10.9567 3.89257 9.72021 3.37193 8.42578 3.35259C7.13136 3.33325 5.87989 3.81672 4.93466 4.70128C3.98943 5.58584 3.42413 6.80254 3.35768 8.0954C3.29124 9.38826 3.72883 10.6565 4.57839 11.6333L4.80339 11.8733L9.51839 16.5883C10.456 17.5257 11.7276 18.0522 13.0534 18.0522C14.3792 18.0522 15.6508 17.5257 16.5884 16.5883C16.7431 16.4334 16.9269 16.3106 17.1291 16.2267C17.3313 16.1429 17.5481 16.0997 17.767 16.0996C17.9859 16.0996 18.2027 16.1426 18.4049 16.2263C18.6072 16.31 18.791 16.4327 18.9459 16.5875C19.1007 16.7422 19.2236 16.9259 19.3074 17.1282C19.3913 17.3304 19.4345 17.5471 19.4346 17.766C19.4346 17.985 19.3916 18.2017 19.3079 18.404C19.2242 18.6063 19.1015 18.7901 18.9467 18.945C17.4348 20.4567 15.3997 21.3296 13.2623 21.3829C11.125 21.4363 9.04882 20.6661 7.46339 19.2316L7.16006 18.945L2.44672 14.23C0.884464 12.6672 0.00683594 10.548 0.00683594 8.3383C0.00683594 6.1286 0.884464 4.0077 2.44672 2.44497Z" fill="black"/>
</svg>
