<?xml version="1.0" standalone="no"?><!DOCTYPE svg PUBLIC "-//W3C//DTD SVG 1.1//EN" "http://www.w3.org/Graphics/SVG/1.1/DTD/svg11.dtd"><svg t="1762952051296" class="icon" viewBox="0 0 1024 1024" version="1.1" xmlns="http://www.w3.org/2000/svg" p-id="28458" width="64" height="64" xmlns:xlink="http://www.w3.org/1999/xlink"><path d="M170.666667 213.333333a42.666667 42.666667 0 0 0 0 85.333334h682.666666a42.666667 42.666667 0 1 0 0-85.333334H170.666667z m-42.666667 298.666667a42.666667 42.666667 0 0 1 42.666667-42.666667h682.666666a42.666667 42.666667 0 1 1 0 85.333334H170.666667a42.666667 42.666667 0 0 1-42.666667-42.666667z m0 256a42.666667 42.666667 0 0 1 42.666667-42.666667h682.666666a42.666667 42.666667 0 1 1 0 85.333334H170.666667a42.666667 42.666667 0 0 1-42.666667-42.666667z" fill="#5a6c7d" p-id="28459"></path></svg>