<svg width="34" height="35" viewBox="0 0 34 35" fill="none" xmlns="http://www.w3.org/2000/svg">
<path d="M30.3335 0C31.2176 0 32.0654 0.351189 32.6905 0.976311C33.3156 1.60143 33.6668 2.44928 33.6668 3.33333V26.6667C33.6668 27.5507 33.3156 28.3986 32.6905 29.0237C32.0654 29.6488 31.2176 30 30.3335 30H3.66683C2.78277 30 1.93493 29.6488 1.30981 29.0237C0.684685 28.3986 0.333496 27.5507 0.333496 26.6667V3.33333C0.333496 2.44928 0.684685 1.60143 1.30981 0.976311C1.93493 0.351189 2.78277 0 3.66683 0H30.3335ZM30.3335 3.33333H3.66683V20.1667L11.9918 11.8433C12.1853 11.6498 12.415 11.4963 12.6678 11.3916C12.9206 11.2869 13.1915 11.2329 13.4652 11.2329C13.7388 11.2329 14.0097 11.2869 14.2625 11.3916C14.5153 11.4963 14.745 11.6498 14.9385 11.8433L21.7135 18.62L23.7768 16.5567C23.9703 16.3632 24.2 16.2096 24.4528 16.1049C24.7056 16.0002 24.9765 15.9463 25.2502 15.9463C25.5238 15.9463 25.7947 16.0002 26.0475 16.1049C26.3003 16.2096 26.53 16.3632 26.7235 16.5567L30.3335 20.1683V3.33333ZM22.8335 6.66667C23.4965 6.66667 24.1324 6.93006 24.6013 7.3989C25.0701 7.86774 25.3335 8.50362 25.3335 9.16667C25.3335 9.82971 25.0701 10.4656 24.6013 10.9344C24.1324 11.4033 23.4965 11.6667 22.8335 11.6667C22.1705 11.6667 21.5346 11.4033 21.0657 10.9344C20.5969 10.4656 20.3335 9.82971 20.3335 9.16667C20.3335 8.50362 20.5969 7.86774 21.0657 7.3989C21.5346 6.93006 22.1705 6.66667 22.8335 6.66667Z" fill="black"/>
</svg>
