<svg width="24" height="24" viewBox="0 0 24 24" fill="none" xmlns="http://www.w3.org/2000/svg">
<path d="M16.9722 6.25089C16.7426 6.12327 16.4901 6.04214 16.2291 6.01212C15.9681 5.98211 15.7038 6.0038 15.4512 6.07595C15.1986 6.1481 14.9627 6.26931 14.757 6.43264C14.5513 6.59598 14.3797 6.79824 14.2522 7.02789L10.5392 13.7099L8.41416 11.5849C8.22967 11.3939 8.00898 11.2415 7.76497 11.1367C7.52096 11.0319 7.25852 10.9767 6.99296 10.9744C6.72741 10.9721 6.46405 11.0227 6.21825 11.1232C5.97246 11.2238 5.74916 11.3723 5.56137 11.5601C5.37359 11.7479 5.22508 11.9712 5.12452 12.217C5.02396 12.4628 4.97335 12.7261 4.97566 12.9917C4.97797 13.2572 5.03314 13.5197 5.13796 13.7637C5.24278 14.0077 5.39514 14.2284 5.58616 14.4129L9.58616 18.4129C9.96416 18.7919 10.4742 18.9999 11.0002 18.9999L11.2772 18.9799C11.5837 18.937 11.8761 18.8236 12.1314 18.6485C12.3866 18.4734 12.5978 18.2414 12.7482 17.9709L17.7482 8.97089C17.8758 8.74134 17.957 8.48889 17.9871 8.22797C18.0172 7.96704 17.9956 7.70274 17.9235 7.45016C17.8515 7.19758 17.7304 6.96167 17.5671 6.7559C17.4039 6.55013 17.2017 6.37852 16.9722 6.25089Z" fill="black"/>
</svg>
