<svg width="40" height="31" viewBox="0 0 40 31" fill="none" xmlns="http://www.w3.org/2000/svg">
<path fill-rule="evenodd" clip-rule="evenodd" d="M14.0868 0.833496C6.91516 0.833496 0.833496 5.7085 0.833496 12.0235C0.833496 15.2568 2.45016 18.1368 4.9735 20.1535V22.9568C4.97342 23.0854 5.00308 23.2122 5.06015 23.3273C5.11723 23.4425 5.20017 23.5429 5.30249 23.6207C5.40481 23.6985 5.52374 23.7516 5.64997 23.7758C5.77621 23.7999 5.90633 23.7946 6.03016 23.7602L9.9685 22.6652C11.3959 23.0563 12.872 23.2409 14.3518 23.2135C14.4005 23.212 14.4483 23.1999 14.4918 23.1781C14.5354 23.1563 14.5737 23.1253 14.6041 23.0873C14.6345 23.0493 14.6563 23.0051 14.668 22.9578C14.6797 22.9106 14.681 22.8613 14.6718 22.8135C14.5639 22.196 14.5099 21.5703 14.5102 20.9435C14.5102 14.4468 20.1852 9.88183 26.5052 9.26016C26.5551 9.25616 26.6034 9.24086 26.6465 9.21541C26.6896 9.18997 26.7264 9.15504 26.754 9.11329C26.7816 9.07154 26.7994 9.02405 26.8059 8.97442C26.8125 8.92479 26.8077 8.87432 26.7918 8.82683C25.1468 4.1335 20.0002 0.833496 14.0868 0.833496ZM11.4252 7.4335C11.4252 7.90426 11.2382 8.35573 10.9053 8.68861C10.5724 9.02149 10.1209 9.2085 9.65016 9.2085C9.1794 9.2085 8.72793 9.02149 8.39505 8.68861C8.06217 8.35573 7.87516 7.90426 7.87516 7.4335C7.87516 6.96274 8.06217 6.51126 8.39505 6.17838C8.72793 5.8455 9.1794 5.6585 9.65016 5.6585C10.1209 5.6585 10.5724 5.8455 10.9053 6.17838C11.2382 6.51126 11.4252 6.96274 11.4252 7.4335ZM18.5218 9.20683C18.7594 9.21411 18.996 9.17361 19.2176 9.08772C19.4392 9.00184 19.6413 8.87233 19.812 8.70686C19.9826 8.54139 20.1182 8.34335 20.2108 8.12447C20.3035 7.90559 20.3512 7.67034 20.3512 7.43266C20.3512 7.19499 20.3035 6.95974 20.2108 6.74086C20.1182 6.52198 19.9826 6.32393 19.812 6.15847C19.6413 5.993 19.4392 5.86348 19.2176 5.7776C18.996 5.69172 18.7594 5.65121 18.5218 5.6585C18.0511 5.6585 17.5996 5.8455 17.2667 6.17838C16.9338 6.51126 16.7468 6.96274 16.7468 7.4335C16.7468 7.90426 16.9338 8.35573 17.2667 8.68861C17.5996 9.02149 18.0511 9.20683 18.5218 9.20683Z" fill="black"/>
<path fill-rule="evenodd" clip-rule="evenodd" d="M27.9836 11.4785C34.012 11.4785 39.167 15.5802 39.167 20.9435C39.167 23.6635 37.817 26.0835 35.717 27.7835V30.0535C35.717 30.182 35.6874 30.3089 35.6303 30.424C35.5732 30.5392 35.4903 30.6396 35.388 30.7174C35.2856 30.7952 35.1667 30.8482 35.0405 30.8724C34.9142 30.8966 34.7841 30.8913 34.6603 30.8568L31.4153 29.9552C30.2959 30.2542 29.1423 30.406 27.9836 30.4068C21.957 30.4068 16.8003 26.3068 16.8003 20.9435C16.8003 15.5802 21.957 11.4785 27.9836 11.4785ZM24.2436 19.4085C24.4518 19.4153 24.6592 19.3802 24.8535 19.3053C25.0478 19.2303 25.2251 19.1171 25.3747 18.9722C25.5244 18.8274 25.6434 18.6539 25.7247 18.4622C25.806 18.2704 25.8478 18.0643 25.8478 17.856C25.8478 17.6477 25.806 17.4416 25.7247 17.2498C25.6434 17.0581 25.5244 16.8846 25.3747 16.7398C25.2251 16.595 25.0478 16.4817 24.8535 16.4068C24.6592 16.3318 24.4518 16.2967 24.2436 16.3035C23.8407 16.3167 23.4587 16.4861 23.1783 16.7758C22.8979 17.0655 22.7412 17.4529 22.7412 17.856C22.7412 18.2592 22.8979 18.6465 23.1783 18.9363C23.4587 19.226 23.8407 19.3953 24.2436 19.4085ZM33.337 17.8568C33.337 18.2686 33.1734 18.6635 32.8822 18.9546C32.5911 19.2458 32.1962 19.4093 31.7845 19.4093C31.3727 19.4093 30.9778 19.2458 30.6867 18.9546C30.3955 18.6635 30.232 18.2686 30.232 17.8568C30.232 17.4451 30.3955 17.0502 30.6867 16.7591C30.9778 16.4679 31.3727 16.3043 31.7845 16.3043C32.1962 16.3043 32.5911 16.4679 32.8822 16.7591C33.1734 17.0502 33.337 17.4451 33.337 17.8568Z" fill="black"/>
</svg>
